<?xml version="1.0" encoding="utf-8"?>
<!-- Generator: Adobe Illustrator 23.0.6, SVG Export Plug-In . SVG Version: 6.00 Build 0)  -->
<svg version="1.1" id="Layer_1" xmlns="http://www.w3.org/2000/svg" xmlns:xlink="http://www.w3.org/1999/xlink" x="0px" y="0px"
	 viewBox="0 0 34.99 34.99" style="enable-background:new 0 0 34.99 34.99;" xml:space="preserve">
<g>
	<polygon points="1.27,11.04 0.67,12.75 0.23,14.62 0.03,16.36 0,17.97 0.13,19.53 0.34,20.96 1.37,20.88 1.4,19.47 1.06,19 
		0.62,16.28 0.71,13.96 1.39,11.32 2.32,9.48 3.42,7.3 2.17,9.08 	"/>
	<path d="M34.8,15.02l-0.41-2.3l-1.01-2.61l-0.93-1.83l-1.3-1.88l-1.56-1.76l-1.94-1.62l-2.72-1.61l-3.21-1.07L19.26,0L15.4,0.06
		l-2.82,0.58l-2.34,0.87L8.8,2.52L8.94,2.6l1.22-0.52l0.49,0.34l0.49-0.15l-0.03,0.2l-0.23,0.1L10.8,3.04h0.47l0.72-0.45l0.27-0.32
		l0.62-0.08l0.71-0.3l0.73-0.51l1.42-0.35l0.3-0.11l1.12,0.31l3.07,0.08L20.38,1l0.71,0.22l-0.04,0.25l-3.04-0.01L16.15,2l0.06,0.6
		l1.94,0.27l1.01,0.36l0.86,0.24l0.79,0.38h1.01l0.15-0.09l0.5-0.04l0.61-0.18l0.67-0.24l0.83,0.02l2.25,0.44l0.27-0.17l1.04,0.53
		l1.04,1.04v0.29l0.96,1.24L29.7,7.83L29.12,7.3l-0.94-0.42l-0.47-0.47L27.06,6.5l-0.73,0.28l-0.07,0.15l-0.7,0.75l-1.19,0.31
		l-0.12,1.1l0.43,0.4h0.76l0.39,0.93l-0.46,0.09l0.01-0.68l-0.7,0.06l-0.01,1.02l-1.06-0.13l-0.33,0.26l-0.76,0.08l-0.12-0.24
		l0.33-0.26l-0.32-0.38l-0.02-0.45L22.19,9.3l0-0.42l0.31-0.32l-0.16-0.26l0.12-0.35L21.5,8.02l-0.07-0.25l-0.28,0.1l0.15,0.26
		l-0.31,0.42l-0.42-0.17L20.2,8.51l-0.36-0.07L19.64,8.9l-0.36,0.11l-0.02,0.08l0.35,0.36l0.96,0.08l0.21-0.36l0.38-0.22l0.39,0.29
		l-0.01,0.42l-0.47-0.21L20.94,9.7l-0.28,0.1l-0.04,0.16l0.09,0.16l-0.31,0.34l1.89,0.63l0.01,0.19l-0.65,0.07l-0.4-0.33l-0.22,0.12
		l-0.34-0.15l-0.54-0.02l-0.06,0.37l0.49,0.43l0.15,0.81l-0.5,0.61l-2.05-1.3l-0.55,0.03l-0.28,0.76l-0.81,0.64l0.06,0.4l-0.24,0.48
		l0.79,0.4l0.08,0.52l-0.74,0.45l-0.98-0.11l-1,0.88l-0.82,0.12l-0.82-0.25l-2.95,1.76l-0.28,0.28v0.34l-0.77,0.83l-0.37,0.52
		l-0.03,1.18l0.46,1.27l0.72,1.99l0.99,1.32l1.35,0.46l1.07,0.7l2.02,0.39l1.37,0.63l0.42,0.55l0.61,0.43l0.14,0.5l-0.41,0.98
		l0.78,1.3l0.01,0.72l-0.2,0.32l-0.15,0.38l-1.19,0.7l-0.18,0.5l-0.27,0.38L16.27,35l3.39-0.12l2.26-0.5l2.03-0.63l2.37-1.28
		l1.97-1.44l1.8-1.58l1.32-1.55l1.1-1.78l1.06-2.09l0.67-2.06l0.59-2.15l0.14-2.73L34.8,15.02z M25.94,10.91l0.29,0.06l0.09-0.08
		l0.52-0.07l0.03-0.71l0.28-0.12l0.1-0.38l-0.31-0.38l0.07-0.41l0.41-0.22l0.2-0.52l0.22,0.14l-0.35,0.5l0.04,0.6l0.35,0.64
		l-0.04,0.19l-0.11,0.52l0.03,0.66l-0.38,0.24l-0.27-0.2l-0.92-0.02l-0.21-0.3l-0.07-0.03L25.94,10.91z M30.97,20.83l-0.39,0.08
		l-0.35-0.15l-0.56,0.31l-0.59-0.16l-0.71-0.29l-0.83-0.56l-0.62,0.17l-0.36,0.28l0.04,0.32l-0.38,0.15l-0.76-0.55l-0.4-0.19
		l-0.05-0.37l-0.53-0.38l-0.7-0.34l-0.35-0.43l0.37-0.34l-0.06-0.41l-0.53-0.79l-0.42-0.04l-0.65-0.27h-0.38l-0.37-0.31l-0.52-0.12
		l-0.73-0.23l-1.41-0.04l-1.1-0.68l0.01-0.27l1.03,0.41l0.5,0.01l0.46-0.18l0.54-0.07l-0.01-0.37l0.53-0.33l0.93,0.08l0.2-0.17
		l0.14-0.35l0.19,0.01l0.68,0.47L24,14.6l0.32,0.35l-0.18,0.31l0.64,0.65l0.65,0.72l0.4,0.63l-0.3,0.26l-0.71-0.18h-0.34v0.25
		l0.68,0.62h0.21l0.31-0.42h0.22l0.42-0.27l0.01-0.21l-0.15-0.27l0.15-0.07l0.22,0.29l0.17,0.01l0.07-0.26l-0.64-0.65l-0.04-0.26
		l-0.42-0.24l-0.23-0.44l-0.18-0.37l-0.06-0.32l0.16-0.01l0.12,0.19L25.76,15l0.25,0.53l0.39,0.41l0.68,0.55l-0.04,0.29v0.45
		l0.25,0.44l-0.07,0.41l0.25,0.27l0.02,0.19l0.47,0.41l0.14-0.08l0.06-0.42l0.3,0.01v0.24l0.28,0.07l0.08-0.23l-0.29-0.57
		l-0.21-0.17l-0.04-0.24l0.27-0.07l0.08-0.04l0.05,0.08l0,0.07l0.18,0.19l0.05,0.43l0.23,0.35l0.01,0.28l0.19,0.21l0.17,0.19
		l0.21-0.01l0.35-0.03l0.32-0.09l0.29,0.11l0.29-0.04l0.26-0.15l0.19,0.05l0.05,0.51L30.97,20.83z"/>
	<polygon points="23.53,15.29 23.56,15.68 23.28,15.69 23.1,16.5 23.38,16.67 23.75,16.5 23.88,16.21 23.85,15.72 24.03,15.29 
		24.03,15.06 23.74,15.06 	"/>
	<polygon points="20.18,5.24 20.36,5.32 20.92,5.48 21.49,5.41 21.47,5.08 20.58,4.55 20.3,4.24 19.81,4.45 19.91,4.61 19.79,4.73 	
		"/>
</g>
</svg>
